<svg width="30" height="30" viewBox="0 0 30 30" fill="none" xmlns="http://www.w3.org/2000/svg">
<path d="M2.5 1.5625C1.98224 1.5625 1.5625 1.98224 1.5625 2.5C1.5625 3.01776 1.98224 3.4375 2.5 3.4375V1.5625ZM7.5 5.9375H22.5V4.0625H7.5V5.9375ZM26.5625 10V16.25H28.4375V10H26.5625ZM22.5 20.3125H12.5V22.1875H22.5V20.3125ZM8.4375 16.25V5H6.5625V16.25H8.4375ZM5 1.5625H2.5V3.4375H5V1.5625ZM8.4375 5C8.4375 3.10153 6.89848 1.5625 5 1.5625V3.4375C5.86295 3.4375 6.5625 4.13705 6.5625 5H8.4375ZM12.5 20.3125C10.2563 20.3125 8.4375 18.4936 8.4375 16.25H6.5625C6.5625 19.5293 9.22081 22.1875 12.5 22.1875V20.3125ZM26.5625 16.25C26.5625 18.4936 24.7436 20.3125 22.5 20.3125V22.1875C25.7793 22.1875 28.4375 19.5293 28.4375 16.25H26.5625ZM22.5 5.9375C24.7436 5.9375 26.5625 7.75634 26.5625 10H28.4375C28.4375 6.72081 25.7793 4.0625 22.5 4.0625V5.9375ZM12.8125 25.625C12.8125 26.1428 12.3928 26.5625 11.875 26.5625V28.4375C13.4283 28.4375 14.6875 27.1783 14.6875 25.625H12.8125ZM11.875 26.5625C11.3572 26.5625 10.9375 26.1428 10.9375 25.625H9.0625C9.0625 27.1783 10.3217 28.4375 11.875 28.4375V26.5625ZM10.9375 25.625C10.9375 25.1073 11.3572 24.6875 11.875 24.6875V22.8125C10.3217 22.8125 9.0625 24.0718 9.0625 25.625H10.9375ZM11.875 24.6875C12.3928 24.6875 12.8125 25.1073 12.8125 25.625H14.6875C14.6875 24.0718 13.4283 22.8125 11.875 22.8125V24.6875ZM24.0625 25.625C24.0625 26.1428 23.6428 26.5625 23.125 26.5625V28.4375C24.6783 28.4375 25.9375 27.1783 25.9375 25.625H24.0625ZM23.125 26.5625C22.6073 26.5625 22.1875 26.1428 22.1875 25.625H20.3125C20.3125 27.1783 21.5718 28.4375 23.125 28.4375V26.5625ZM22.1875 25.625C22.1875 25.1073 22.6073 24.6875 23.125 24.6875V22.8125C21.5718 22.8125 20.3125 24.0718 20.3125 25.625H22.1875ZM23.125 24.6875C23.6428 24.6875 24.0625 25.1073 24.0625 25.625H25.9375C25.9375 24.0718 24.6783 22.8125 23.125 22.8125V24.6875ZM13.75 9.6875C13.2323 9.6875 12.8125 10.1072 12.8125 10.625C12.8125 11.1428 13.2323 11.5625 13.75 11.5625V9.6875ZM21.25 11.5625C21.7678 11.5625 22.1875 11.1428 22.1875 10.625C22.1875 10.1072 21.7678 9.6875 21.25 9.6875V11.5625ZM13.75 11.5625H21.25V9.6875H13.75V11.5625ZM13.75 14.6875C13.2323 14.6875 12.8125 15.1073 12.8125 15.625C12.8125 16.1428 13.2323 16.5625 13.75 16.5625V14.6875ZM21.25 16.5625C21.7678 16.5625 22.1875 16.1428 22.1875 15.625C22.1875 15.1073 21.7678 14.6875 21.25 14.6875V16.5625ZM13.75 16.5625H21.25V14.6875H13.75V16.5625Z" fill="#141313"/>
</svg>
