<svg width="180" height="38" viewBox="0 0 180 38" fill="none" xmlns="http://www.w3.org/2000/svg">
<path fill-rule="evenodd" clip-rule="evenodd" d="M0 18.6235V37.2471H11.0545H22.109V33.8972V30.5474H14.6601H7.21118V15.2737V0H3.60559H0V18.6235ZM69.9722 18.6276V37.2552L78.273 37.2237C86.2314 37.1935 86.6097 37.1854 87.4454 37.0287C90.7746 36.4043 92.9726 35.3341 94.8547 33.421C96.1603 32.094 96.8412 30.9143 97.3265 29.1392C97.4718 28.6079 97.4985 28.2909 97.5035 27.038C97.5087 25.7281 97.4882 25.4821 97.3214 24.8463C96.5765 22.0082 94.4488 19.6597 91.569 18.4974C91.1411 18.3246 90.8938 18.181 90.8941 18.1051C90.8943 18.034 91.2254 17.8142 91.7093 17.5637C93.8108 16.4759 95.511 14.7014 96.2342 12.8411C97.5065 9.56827 96.629 5.86725 94.0034 3.43215C92.0306 1.60258 89.102 0.409399 85.7874 0.0847829C85.2451 0.031664 82.1297 0 77.4469 0H69.9722V18.6276ZM131.228 18.6235V37.2471H134.595H137.963V18.6235V0H134.595H131.228V18.6235ZM142.559 18.6235V37.2471H145.927H149.295V18.6235V0H145.927H142.559V18.6235ZM85.3632 6.39908C87.7839 7.06059 89.1433 8.63534 89.148 10.7834C89.1507 11.9937 88.7748 12.9131 87.9282 13.7667C87.4993 14.1993 87.2058 14.4114 86.6884 14.6632C85.2667 15.355 84.3186 15.4731 80.1862 15.4731H77.1834V10.8023V6.13141L80.888 6.15996L84.5927 6.18852L85.3632 6.39908ZM36.1886 10.5325C31.5768 11.072 27.6159 13.9371 25.6021 18.1901C22.8509 24.0006 24.4074 31.0526 29.3202 35.0361C32.4043 37.5368 36.4928 38.53 40.4026 37.728C42.083 37.3834 44.0109 36.5268 45.3482 35.531C45.7301 35.2466 46.0599 35.0138 46.0812 35.0138C46.1025 35.0138 46.1198 35.5163 46.1198 36.1304V37.2471H49.2896H52.4593V24.2465V11.2459H49.2896H46.1198V12.3722C46.1198 13.458 46.1145 13.4947 45.9718 13.3892C44.8264 12.5426 44.4226 12.2868 43.5444 11.8514C42.0421 11.1066 40.6897 10.7026 39.1297 10.5323C38.2638 10.4378 36.9978 10.4379 36.1886 10.5325ZM112.843 10.5372C110.654 10.7882 108.439 11.5834 106.702 12.742C105.766 13.3658 105.492 13.5908 104.653 14.4203C101.852 17.1895 100.424 20.8648 100.586 24.8845C100.675 27.0814 101.093 28.6922 102.077 30.6271C104.063 34.5311 107.951 37.1462 112.819 37.8525C113.986 38.0218 116.41 38.0187 117.558 37.8464C120.505 37.4043 123.073 36.2518 125.023 34.497C125.737 33.8537 126.718 32.7775 126.667 32.6935C126.607 32.5966 121.495 28.7927 121.425 28.7927C121.388 28.7927 121.038 29.1182 120.647 29.516C118.972 31.2188 117.351 31.9034 114.994 31.9032C113.511 31.903 112.385 31.6693 111.298 31.1362C109.744 30.3741 108.59 29.0303 108.096 27.4085C108.005 27.1077 107.93 26.8296 107.93 26.7904C107.93 26.7487 111.995 26.719 117.672 26.719H127.414L127.476 26.3401C127.58 25.7087 127.552 22.5182 127.437 21.8139C127.281 20.8616 126.971 19.6747 126.655 18.8229C124.74 13.657 119.912 10.3907 114.292 10.4587C113.822 10.4643 113.17 10.4997 112.843 10.5372ZM165.302 10.5372C163.113 10.7882 160.898 11.5834 159.161 12.742C158.226 13.3658 157.951 13.5908 157.112 14.4203C154.312 17.1895 152.883 20.8648 153.046 24.8845C153.134 27.0814 153.553 28.6922 154.537 30.6271C156.523 34.5311 160.41 37.1462 165.278 37.8525C166.445 38.0218 168.869 38.0187 170.017 37.8464C172.964 37.4043 175.533 36.2518 177.482 34.497C178.196 33.8537 179.178 32.7775 179.126 32.6935C179.066 32.5966 173.955 28.7927 173.884 28.7927C173.848 28.7927 173.498 29.1182 173.106 29.516C171.431 31.2188 169.81 31.9034 167.453 31.9032C165.97 31.903 164.844 31.6693 163.757 31.1362C162.203 30.3741 161.049 29.0303 160.556 27.4085C160.464 27.1077 160.389 26.8296 160.389 26.7904C160.389 26.7487 164.454 26.719 170.131 26.719H179.873L179.936 26.3401C180.039 25.7087 180.012 22.5182 179.896 21.8139C179.74 20.8616 179.43 19.6747 179.114 18.8229C177.199 13.657 172.371 10.3907 166.752 10.4587C166.281 10.4643 165.629 10.4997 165.302 10.5372ZM116.171 16.6315C117.033 16.8531 118.05 17.3933 118.652 17.9493C119.604 18.8272 120.077 19.6927 120.404 21.1558L120.453 21.3752H114.275H108.097L108.245 20.9432C108.625 19.83 109.456 18.5297 110.168 17.9343C111.033 17.2102 111.983 16.7502 113.041 16.5426C113.757 16.4022 115.469 16.4508 116.171 16.6315ZM168.631 16.6315C169.492 16.8531 170.509 17.3933 171.112 17.9493C172.063 18.8272 172.536 19.6927 172.864 21.1558L172.913 21.3752H166.735H160.556L160.704 20.9432C161.084 19.83 161.916 18.5297 162.627 17.9343C163.493 17.2102 164.442 16.7502 165.501 16.5426C166.217 16.4022 167.928 16.4508 168.631 16.6315ZM40.2954 16.9029C41.1223 17.1158 42.3814 17.7524 43.0293 18.2852C44.0553 19.1288 44.9938 20.5492 45.393 21.8628C45.8824 23.4732 45.8163 25.4646 45.2188 27.1025C44.5456 28.948 42.9133 30.6188 41.1226 31.2953C39.5764 31.8795 37.5526 31.9005 36.0844 31.3476C35.0283 30.9499 34.1688 30.3852 33.3893 29.5772C32.1096 28.2507 31.415 26.5765 31.3261 24.6054C31.1831 21.4344 32.779 18.6507 35.4713 17.3751C36.037 17.107 36.9468 16.8373 37.6804 16.7204C38.1887 16.6393 39.6745 16.743 40.2954 16.9029ZM84.2361 21.3769C85.4754 21.4857 86.3455 21.7129 87.287 22.1732C88.5614 22.7965 89.2716 23.561 89.6869 24.7568C89.9179 25.4216 89.9635 26.554 89.7884 27.2773C89.2578 29.469 87.2148 30.7932 84.0041 31.0262C83.4126 31.0692 81.6359 31.1046 80.056 31.105L77.1834 31.1057V26.2006V21.2954L80.2541 21.2961C81.943 21.2965 83.7349 21.3328 84.2361 21.3769Z" fill="#141313"/>
</svg>
